<?xml version="1.0" encoding="utf-8"?>
<!-- Generator: Adobe Illustrator 28.3.0, SVG Export Plug-In . SVG Version: 6.00 Build 0)  -->
<svg xmlns="http://www.w3.org/2000/svg"  viewBox="0 0 25 27" >
<path class="st0" d="M12.5,9.2c-2.5,0-4.6,2.1-4.6,4.6c0,2.5,2.1,4.6,4.6,4.6c2.5,0,4.6-2.1,4.6-4.6C17.1,11.2,15,9.2,12.5,9.2z
	 M9.7,13.8c0-1.5,1.2-2.8,2.8-2.8c1.5,0,2.8,1.2,2.8,2.8c0,1.5-1.2,2.8-2.8,2.8C11,16.5,9.7,15.3,9.7,13.8z"/>
<path class="st0" d="M12.5,0.6c-0.5,0-1,0-1.4,0c-0.4,0-0.8,0.1-1.1,0.2c-0.8,0.3-1.5,1-1.8,1.8C8,3.1,7.9,3.5,7.9,4
	c0,0.4-0.2,0.7-0.5,0.9c-0.3,0.2-0.7,0.2-1,0C5.9,4.7,5.5,4.5,5,4.4C4.2,4.3,3.3,4.6,2.5,5.1C2.2,5.3,2,5.6,1.8,6
	C1.6,6.3,1.4,6.7,1.1,7.1l0,0.1C0.8,7.7,0.6,8.1,0.4,8.4C0.2,8.8,0.1,9.1,0,9.5c-0.1,0.9,0.1,1.8,0.7,2.5c0.3,0.4,0.7,0.6,1.1,0.9
	c0.3,0.2,0.5,0.6,0.5,0.9c0,0.3-0.2,0.7-0.5,0.9c-0.4,0.3-0.8,0.5-1.1,0.9c-0.5,0.7-0.8,1.6-0.7,2.5c0.1,0.4,0.2,0.7,0.4,1.1
	c0.2,0.3,0.4,0.7,0.7,1.2l0,0.1c0.3,0.5,0.5,0.9,0.7,1.2c0.2,0.3,0.5,0.6,0.8,0.9C3.3,23,4.2,23.2,5,23.1c0.5-0.1,0.9-0.2,1.3-0.5
	c0.4-0.2,0.7-0.2,1,0c0.3,0.2,0.5,0.5,0.5,0.9c0,0.5,0.1,0.9,0.2,1.4c0.3,0.8,1,1.5,1.8,1.8c0.4,0.1,0.7,0.2,1.1,0.2
	c0.4,0,0.8,0,1.4,0h0.1c0.5,0,1,0,1.4,0c0.4,0,0.8-0.1,1.1-0.2c0.8-0.3,1.5-1,1.8-1.8c0.2-0.4,0.2-0.9,0.2-1.4
	c0-0.4,0.2-0.7,0.5-0.9c0.3-0.2,0.7-0.2,1,0c0.4,0.2,0.9,0.4,1.3,0.5c0.9,0.1,1.8-0.1,2.5-0.7c0.3-0.2,0.5-0.5,0.8-0.9
	c0.2-0.3,0.4-0.7,0.7-1.2l0-0.1c0.3-0.5,0.5-0.9,0.7-1.2c0.2-0.4,0.3-0.7,0.4-1.1c0.1-0.9-0.1-1.8-0.7-2.5c-0.3-0.4-0.7-0.6-1.1-0.9
	c-0.3-0.2-0.5-0.6-0.5-0.9c0-0.3,0.2-0.7,0.5-0.9c0.4-0.3,0.8-0.5,1.1-0.9c0.5-0.7,0.8-1.6,0.7-2.5c-0.1-0.4-0.2-0.7-0.4-1.1
	c-0.2-0.3-0.4-0.7-0.7-1.2l0-0.1c-0.3-0.5-0.5-0.9-0.7-1.2c-0.2-0.3-0.5-0.6-0.8-0.9c-0.7-0.5-1.6-0.8-2.5-0.7
	c-0.5,0.1-0.9,0.2-1.3,0.5c-0.4,0.2-0.7,0.2-1,0c-0.3-0.2-0.5-0.5-0.5-0.9c0-0.5-0.1-0.9-0.2-1.4c-0.3-0.8-1-1.5-1.8-1.8
	c-0.4-0.1-0.7-0.2-1.1-0.2C13.5,0.6,13.1,0.6,12.5,0.6L12.5,0.6z M10.7,2.5c0.1,0,0.2-0.1,0.5-0.1c0.3,0,0.7,0,1.3,0s1,0,1.3,0
	c0.3,0,0.4,0.1,0.5,0.1C14.7,2.7,15,3,15.1,3.4c0,0.1,0.1,0.3,0.1,0.7c0,1,0.5,1.9,1.4,2.4c0.9,0.5,2,0.5,2.8,0
	c0.4-0.2,0.6-0.3,0.7-0.3c0.4-0.1,0.8,0.1,1.1,0.3c0.1,0.1,0.2,0.2,0.4,0.4c0.2,0.3,0.4,0.6,0.7,1.1c0.3,0.5,0.5,0.8,0.6,1.1
	c0.1,0.3,0.2,0.4,0.2,0.5c0.1,0.4-0.1,0.8-0.3,1.1c-0.1,0.1-0.2,0.2-0.6,0.5c-0.8,0.5-1.4,1.4-1.4,2.5c0,1,0.6,1.9,1.4,2.5
	c0.4,0.2,0.5,0.4,0.6,0.5c0.2,0.3,0.4,0.7,0.3,1.1c0,0.1-0.1,0.2-0.2,0.5c-0.1,0.3-0.3,0.6-0.6,1.1s-0.5,0.8-0.7,1.1
	c-0.2,0.2-0.3,0.4-0.4,0.4c-0.3,0.2-0.7,0.4-1.1,0.3c-0.1,0-0.3-0.1-0.7-0.3c-0.9-0.5-1.9-0.5-2.8,0c-0.9,0.5-1.4,1.5-1.4,2.4
	c0,0.4-0.1,0.6-0.1,0.7c-0.2,0.4-0.5,0.7-0.8,0.8c-0.1,0-0.2,0.1-0.5,0.1c-0.3,0-0.7,0-1.3,0s-1,0-1.3,0c-0.3,0-0.4-0.1-0.5-0.1
	c-0.4-0.2-0.7-0.5-0.8-0.8c0-0.1-0.1-0.3-0.1-0.7c0-1-0.5-1.9-1.4-2.4c-0.9-0.5-2-0.5-2.8,0c-0.4,0.2-0.6,0.3-0.7,0.3
	C4.4,21.3,4,21.2,3.7,21c-0.1-0.1-0.2-0.2-0.3-0.4C3.2,20.3,3,20,2.7,19.5C2.4,19,2.2,18.6,2,18.3c-0.1-0.3-0.2-0.4-0.2-0.5
	c-0.1-0.4,0.1-0.8,0.3-1.1c0.1-0.1,0.2-0.2,0.6-0.5c0.8-0.5,1.4-1.4,1.4-2.5c0-1-0.6-1.9-1.4-2.5c-0.4-0.2-0.5-0.4-0.6-0.5
	c-0.2-0.3-0.4-0.7-0.3-1.1c0-0.1,0.1-0.2,0.2-0.5c0.1-0.3,0.3-0.6,0.6-1.1C3,7.6,3.2,7.2,3.3,7c0.2-0.2,0.3-0.4,0.3-0.4
	C4,6.3,4.4,6.2,4.8,6.3c0.1,0,0.3,0.1,0.7,0.3C6.4,7,7.4,7,8.3,6.5C9.2,6,9.7,5.1,9.7,4.1c0-0.4,0.1-0.6,0.1-0.7
	C10,3,10.3,2.7,10.7,2.5z"/>
</svg>
