<?xml version="1.0" encoding="utf-8"?>
<!-- Generator: Adobe Illustrator 28.3.0, SVG Export Plug-In . SVG Version: 6.00 Build 0)  -->
<svg className="Dashboard-item--svg" xmlns="http://www.w3.org/2000/svg" viewBox="0 0 25 25.1">
	<path d="M23.1,2c-3-3-8.2-2.4-11.4,0.9c-1.6,1.6-2.8,4-3.3,6.3c-0.1,0.6-0.2,1.3-0.2,2l-7,6.8c-1.6,1.6-1.6,4.3,0,5.9
		c1.6,1.6,4.3,1.6,5.9,0L14,17c0.7,0,1.3-0.1,2-0.2c2.3-0.5,4.6-1.7,6.2-3.3C25.4,10.3,26.1,5.1,23.1,2z M21.8,3.3
		c0.1,0,0.2,0.2,0.1,0.7c-0.1,0.4-0.4,1-1,1.6c-0.8,1.3-2,2.8-3,3.8s-2.7,2.5-4.3,3.5c-0.8,0.5-1.5,0.9-2.1,1.1
		c-0.3,0.1-0.5,0.1-0.6,0.1c-0.1,0-0.1,0-0.1,0s0,0,0-0.1s0-0.3,0.1-0.6c0.2-0.5,0.6-1.3,1.1-2.1C13,9.7,14.5,8,15.5,7
		s2.4-2.2,3.8-3c0.7-0.4,1.3-0.7,1.8-0.8C21.6,3.1,21.7,3.2,21.8,3.3z M10,9.5c0.4-2,1.4-4,2.8-5.4c1.9-1.9,4.5-2.6,6.6-2.1
		c-0.3,0.1-0.6,0.3-0.9,0.5c-1.6,0.9-3.1,2.2-4.2,3.3c-1.1,1.1-2.7,2.9-3.8,4.6c-0.2,0.4-0.5,0.8-0.7,1.2C9.8,11,9.8,10.3,10,9.5z
		 M5.8,22.6c-0.9,1-2.4,1-3.4,0s-1-2.5,0-3.5l5.9-5.9C8.6,14,9,14.8,9.6,15.4c0.6,0.6,1.4,1.1,2.2,1.3L5.8,22.6z M21,12.3
		c-1.4,1.4-3.4,2.4-5.4,2.8c-0.8,0.2-1.5,0.2-2.1,0.2c0.4-0.2,0.8-0.5,1.2-0.7c1.7-1.1,3.5-2.7,4.6-3.8c1.1-1.1,2.4-2.6,3.3-4.2
		C22.8,6.3,23,6,23.1,5.7C23.6,7.8,22.9,10.4,21,12.3z"/>
</svg>
