<?xml version="1.0" encoding="utf-8"?>
<!-- Generator: Adobe Illustrator 28.3.0, SVG Export Plug-In . SVG Version: 6.00 Build 0)  -->
<svg xmlns="http://www.w3.org/2000/svg" viewBox="0 0 25 26">
	<path d="M10.9,2.7C10.2,3,9.4,3.5,8.2,4.3L5.8,5.7C4.7,6.4,3.9,6.9,3.4,7.3C2.8,7.8,2.5,8.1,2.2,8.6
		C2,9,1.9,9.4,1.8,10.2c-0.1,0.8-0.1,1.7-0.1,3.1V15c0,2.3,0,3.9,0.2,5.2c0.2,1.2,0.5,1.9,1,2.4c0.5,0.5,1.2,0.8,2.3,1
		c1.2,0.2,2.8,0.2,5,0.2h4.7c2.2,0,3.8,0,5-0.2c1.2-0.2,1.8-0.5,2.3-1c0.5-0.5,0.8-1.2,1-2.4c0.2-1.2,0.2-2.9,0.2-5.2v-1.8
		c0-1.3,0-2.3-0.1-3.1C23.1,9.4,23,9,22.8,8.6c-0.2-0.4-0.6-0.8-1.1-1.2c-0.6-0.4-1.4-0.9-2.5-1.6l-2.3-1.4c-1.2-0.7-2-1.2-2.7-1.6
		c-0.7-0.3-1.2-0.5-1.6-0.5S11.6,2.4,10.9,2.7z M10.1,1.1c0.8-0.4,1.6-0.6,2.4-0.6s1.6,0.2,2.4,0.6c0.8,0.4,1.7,0.9,2.8,1.6l2.4,1.5
		C21.2,4.9,22,5.5,22.7,6c0.7,0.5,1.2,1.1,1.6,1.8c0.4,0.7,0.5,1.4,0.6,2.3c0.1,0.8,0.1,1.9,0.1,3.2v1.9c0,2.2,0,4-0.2,5.3
		c-0.2,1.4-0.6,2.5-1.4,3.4c-0.9,0.9-2,1.3-3.3,1.5c-1.3,0.2-3,0.2-5.2,0.2h-4.8c-2.1,0-3.8,0-5.2-0.2c-1.4-0.2-2.5-0.6-3.3-1.5
		c-0.9-0.9-1.2-2-1.4-3.4C0,19,0,17.3,0,15.1v-1.9c0-1.3,0-2.3,0.1-3.2c0.1-0.9,0.3-1.6,0.6-2.3C1.1,7,1.6,6.5,2.3,6
		c0.7-0.5,1.5-1,2.6-1.7l2.4-1.5C8.4,2.1,9.3,1.5,10.1,1.1z"/>
	<path d="M12.5,19.4c-0.5,0-0.9-0.4-0.9-0.9V15c0-0.5,0.4-0.9,0.9-0.9s0.9,0.4,0.9,0.9v3.5C13.4,19,13,19.4,12.5,19.4z"
		/>
</svg>
