<?xml version="1.0" encoding="utf-8"?>
<!-- Generator: Adobe Illustrator 28.3.0, SVG Export Plug-In . SVG Version: 6.00 Build 0)  -->
<svg xmlns="http://www.w3.org/2000/svg" viewBox="0 0 25 26">
<path class="st0" d="M7,3.6c1-2.1,3.1-3.5,5.5-3.5S17,1.5,18,3.6c0.1,0,0.2,0,0.3,0c3.7,0,6.7,3,6.7,6.7c0,2.5-1.4,4.7-3.5,5.9v3.5
	c0,1,0,1.9-0.1,2.6c-0.1,0.7-0.3,1.4-0.8,1.9c-0.5,0.5-1.2,0.7-1.9,0.8c-0.7,0.1-1.6,0.1-2.6,0.1H9c-1,0-1.9,0-2.6-0.1
	c-0.7-0.1-1.4-0.3-1.9-0.8c-0.5-0.5-0.7-1.2-0.8-1.9c-0.1-0.7-0.1-1.6-0.1-2.6v-3.5C1.4,15,0,12.8,0,10.3c0-3.7,3-6.7,6.7-6.7
	C6.8,3.6,6.9,3.6,7,3.6z M6.5,5.3c-2.6,0.1-4.7,2.3-4.7,4.9c0,2,1.2,3.8,3,4.5c0.3,0.1,0.5,0.5,0.5,0.8v4c0,1.1,0,1.9,0.1,2.4
	c0.1,0.5,0.2,0.8,0.3,0.9c0.2,0.2,0.4,0.3,0.9,0.3c0.6,0.1,1.3,0.1,2.4,0.1h7c1.1,0,1.9,0,2.4-0.1c0.5-0.1,0.8-0.2,0.9-0.3
	c0.2-0.2,0.3-0.4,0.3-0.9c0.1-0.6,0.1-1.3,0.1-2.4v-4c0-0.3,0.2-0.7,0.5-0.8c1.7-0.8,3-2.5,3-4.5c0-2.7-2.1-4.8-4.7-4.9
	c0,0.3,0.1,0.6,0.1,0.9v0.6c0,0.5-0.4,0.9-0.9,0.9c-0.5,0-0.9-0.4-0.9-0.9V6.2c0-0.5-0.1-1-0.2-1.4c-0.6-1.7-2.2-3-4.1-3
	S9,3.1,8.4,4.8C8.2,5.2,8.1,5.7,8.1,6.2v0.6c0,0.5-0.4,0.9-0.9,0.9S6.4,7.2,6.4,6.8V6.2C6.4,5.9,6.4,5.6,6.5,5.3z M8.1,19.6
	c0-0.5,0.4-0.9,0.9-0.9h7c0.5,0,0.9,0.4,0.9,0.9c0,0.5-0.4,0.9-0.9,0.9H9C8.5,20.4,8.1,20.1,8.1,19.6z"/>
</svg>
