<?xml version="1.0" encoding="utf-8"?>
<!-- Generator: Adobe Illustrator 28.3.0, SVG Export Plug-In . SVG Version: 6.00 Build 0)  -->
<svg className="" xmlns="http://www.w3.org/2000/svg" viewBox="0 0 25 26">
<path style="fill-rule:evenodd;clip-rule:evenodd;" d="M11.7,2.5c-0.5,0.6-1,1.5-1.7,2.9L9.6,6.1c0,0,0,0.1-0.1,0.1
	C9.2,6.8,8.9,7.4,8.4,7.7C7.9,8.1,7.3,8.2,6.6,8.4c0,0-0.1,0-0.1,0L5.8,8.6C4.3,8.9,3.3,9.1,2.6,9.4C2,9.7,1.8,9.9,1.8,10.1
	c-0.1,0.2-0.1,0.5,0.3,1.1c0.4,0.6,1.1,1.4,2.1,2.6l0.5,0.6c0,0,0.1,0.1,0.1,0.1c0.5,0.5,0.9,1,1,1.6c0.2,0.6,0.1,1.2,0,1.9
	c0,0,0,0.1,0,0.1l-0.1,0.8c-0.2,1.6-0.3,2.6-0.2,3.4c0,0.8,0.2,1,0.3,1.1c0.1,0.1,0.3,0.2,1,0c0.7-0.2,1.6-0.6,3-1.3l0.7-0.3
	c0,0,0.1,0,0.1-0.1c0.6-0.3,1.2-0.5,1.8-0.5s1.1,0.3,1.8,0.5c0,0,0.1,0,0.1,0.1l0.7,0.3c1.4,0.6,2.3,1.1,3,1.3c0.7,0.2,0.9,0.1,1,0
	c0.1-0.1,0.3-0.3,0.3-1.1c0-0.8-0.1-1.8-0.2-3.4l-0.1-0.8c0,0,0-0.1,0-0.1c-0.1-0.7-0.1-1.3,0-1.9c0.2-0.6,0.6-1,1-1.6
	c0,0,0.1-0.1,0.1-0.1l0.5-0.6c1-1.2,1.7-2,2.1-2.6c0.4-0.6,0.4-0.9,0.3-1.1c-0.1-0.2-0.2-0.4-0.9-0.6c-0.7-0.3-1.7-0.5-3.1-0.8
	l-0.7-0.2c0,0-0.1,0-0.1,0c-0.7-0.2-1.3-0.3-1.7-0.7c-0.5-0.4-0.8-0.9-1.1-1.5c0,0,0-0.1-0.1-0.1L15,5.4c-0.8-1.3-1.3-2.3-1.7-2.9
	c-0.5-0.6-0.7-0.6-0.8-0.6C12.4,1.9,12.1,1.9,11.7,2.5z M10.3,1.5c0.6-0.7,1.2-1.3,2.2-1.3c1,0,1.7,0.6,2.2,1.3
	c0.5,0.7,1.1,1.7,1.8,3L17,5.2c0.5,0.8,0.6,1,0.7,1.1c0.1,0.1,0.3,0.2,1.2,0.4l0.8,0.2c1.4,0.3,2.5,0.6,3.3,0.9
	c0.9,0.3,1.6,0.8,1.9,1.8c0.3,0.9,0,1.8-0.5,2.5c-0.5,0.8-1.2,1.7-2.2,2.8l-0.6,0.6c-0.6,0.7-0.7,0.9-0.8,1.1
	c-0.1,0.2-0.1,0.4,0,1.4l0.1,0.9c0.1,1.5,0.3,2.7,0.2,3.6c0,0.9-0.3,1.8-1,2.4c-0.8,0.6-1.7,0.5-2.6,0.3c-0.8-0.2-1.9-0.7-3.2-1.3
	l-0.8-0.4c-0.8-0.4-1-0.4-1.2-0.4s-0.3,0.1-1.2,0.4l-0.8,0.4c-1.3,0.6-2.3,1.1-3.2,1.3c-0.9,0.3-1.8,0.3-2.6-0.3
	c-0.8-0.6-1-1.5-1-2.4c0-0.9,0.1-2.1,0.2-3.6l0.1-0.9c0.1-0.9,0.1-1.2,0-1.4c-0.1-0.2-0.2-0.4-0.8-1.1l-0.6-0.6
	c-0.9-1.1-1.7-2-2.2-2.8c-0.5-0.8-0.8-1.6-0.5-2.5c0.3-0.9,1-1.4,1.9-1.8c0.8-0.3,1.9-0.6,3.3-0.9l0.1,0l0.7-0.2
	C7,6.5,7.2,6.4,7.3,6.3C7.5,6.2,7.6,6.1,8,5.2l0.4-0.7C9.2,3.2,9.7,2.2,10.3,1.5z"/>
</svg>
