<?xml version="1.0" encoding="utf-8"?>
<!-- Generator: Adobe Illustrator 28.3.0, SVG Export Plug-In . SVG Version: 6.00 Build 0)  -->
<svg xmlns="http://www.w3.org/2000/svg" viewBox="0 0 22 27">
<path d="M19.2,7.6c-1-1.8-2.2-3.4-3.1-4.6l-0.5-0.6c-0.4-0.4-0.7-0.8-0.9-1c-0.1-0.1-0.1-0.2-0.2-0.3c0,0,0,0,0,0V0.9h-0.2V0.5
	l-0.3,0.3c-0.1-0.1-0.3-0.2-0.5-0.2c-0.3,0-0.5,0.1-0.7,0.3L9.3,5.2l-2-2.5C7.1,2.6,6.9,2.5,6.6,2.5C6.3,2.5,6.1,2.6,6,2.8H5.8v0.2
	C5.7,3,5.7,3,5.6,3l0,0.1C5.5,3.3,5.3,3.6,5,4C4.5,4.7,3.9,5.6,3.2,6.9c-1,1.8-2.6,5.4-2.6,9c0,3.4,1.3,6.2,3.9,8.2
	c1.9,1.5,4.5,2.4,7,2.4c2.4,0,5-0.9,6.8-2.3c2.4-1.9,3.7-4.5,3.7-8C22,13,20.5,9.7,19.2,7.6z M9,16.3c0.8-1.3,1.7-2.5,2.3-3.3
	c0.6,0.8,1.5,2,2.3,3.3c0.7,1.2,1.6,3,1.6,4.6c0,2-1.7,3.8-3.7,3.8l-0.5,0c-1.9-0.2-3.4-1.8-3.4-3.8C7.5,19.6,7.9,18.1,9,16.3z
	 M16.1,23.5c0.4-0.8,0.6-1.7,0.6-2.5c0-2-1-4.1-1.7-5.5c-0.6-1.1-1.4-2.2-2.1-3c-0.1-0.2-0.3-0.3-0.4-0.5c-0.1-0.2-0.3-0.3-0.3-0.4
	c-0.1-0.1-0.1-0.2-0.2-0.3c0,0,0,0,0,0l0,0l-0.1-0.1v-0.4L11.7,11c-0.3-0.1-0.7-0.1-1,0l0,0l-0.5,0.5c-0.2,0.2-0.3,0.4-0.5,0.6
	l-0.5,0.7c-0.5,0.7-1.2,1.6-1.8,2.6c-0.6,1.1-1.7,3.4-1.7,5.5c0,0.8,0.2,1.5,0.5,2.2c-2.4-1.5-3.8-4.1-3.8-7.2
	c0-2.7,1.1-5.3,1.9-7.1c0.9-1.8,1.9-3.3,2.4-4l2,2.3c0.2,0.3,0.5,0.3,0.7,0.3c0.3,0,0.5-0.1,0.7-0.3l3.5-4.4
	c1.1,1.3,2.7,3.4,4.1,5.7c1.7,2.9,2.6,5.5,2.6,7.8c0,2.2-0.6,4-1.8,5.4C17.8,22.5,16.9,23.1,16.1,23.5z"/>
</svg>
