<?xml version="1.0" encoding="utf-8"?>
<!-- Generator: Adobe Illustrator 28.3.0, SVG Export Plug-In . SVG Version: 6.00 Build 0)  -->
<svg className="" xmlns="http://www.w3.org/2000/svg" viewBox="0 0 18 20">
	<path class="st0" d="M4.4,18C3.1,18,2,16.9,2,15.6V4.4C2,3.1,3.1,2,4.4,2H9c0.6,0,1-0.5,1-1c0-0.6-0.5-1-1-1H4.4C2,0,0,2,0,4.4v11.2
		C0,18,2,20,4.4,20H9c0.6,0,1-0.5,1-1c0-0.6-0.5-1-1-1H4.4z M11.9,14.5c0.4,0.4,1,0.4,1.4,0l3.7-3.7c0.2-0.2,0.3-0.4,0.3-0.7
		c0-0.3-0.1-0.5-0.3-0.7l-3.7-3.7c-0.4-0.4-1-0.4-1.4,0c-0.4,0.4-0.4,1,0,1.4l2,2H6.6c-0.6,0-1,0.5-1,1c0,0.6,0.5,1,1,1h7.3l-2,2
		C11.5,13.4,11.5,14.1,11.9,14.5z"/>
</svg>
