<svg width="22" height="27" viewBox="0 0 22 27" fill="none" xmlns="http://www.w3.org/2000/svg">
<path d="M9.27669 5.59443L7.07834 2.94633C7.07827 2.94625 7.0782 2.94617 7.07813 2.94609C6.95225 2.79398 6.76565 2.70717 6.56886 2.70848L6.56736 2.7085C6.37207 2.71111 6.18587 2.79973 6.06201 2.95404L6.06184 2.95426L6.23748 3.09488C6.06184 2.95426 6.06179 2.95432 6.06172 2.95441L6.06147 2.95472L6.06063 2.95577L6.05753 2.95967L6.04577 2.97453C6.03551 2.98755 6.02044 3.00676 6.00089 3.03195C5.9618 3.08234 5.90477 3.15668 5.83238 3.25329C5.6876 3.4465 5.48129 3.72889 5.23396 4.08715C4.73945 4.80346 4.08024 5.82411 3.42087 7.04238C2.10529 9.47305 0.775 12.7158 0.775 15.907C0.775 19.609 2.38862 22.212 4.52742 23.884C6.65851 25.5499 9.30761 26.29 11.3974 26.29C13.4856 26.29 16.0543 25.6282 18.1062 24.0328C20.1665 22.4309 21.6938 19.8959 21.6938 16.1858C21.6938 13.2684 20.4396 10.2346 18.9401 7.66475C17.8278 5.75818 16.5776 4.09495 15.6063 2.90905C15.1204 2.31582 14.7038 1.84134 14.4083 1.51482C14.2606 1.35154 14.143 1.22522 14.0623 1.1395C14.0219 1.09663 13.9906 1.06392 13.9694 1.04181L13.9452 1.01665L13.9389 1.01014L13.9372 1.00842L13.9367 1.00795L13.9366 1.00781C13.9365 1.00777 13.9365 1.00774 13.7756 1.16496L13.9365 1.00774L13.9363 1.00752C13.8058 0.87427 13.6246 0.801517 13.436 0.810757L13.436 0.810761C13.25 0.819937 13.076 0.907644 12.9581 1.05191L12.9575 1.05264L9.27669 5.59443ZM8.78344 16.2447C9.64657 14.7353 10.6526 13.4564 11.2345 12.7645C11.8165 13.4565 12.8231 14.7353 13.6854 16.2447L13.6854 16.2447C14.537 17.7352 15.2389 19.4211 15.2389 20.9683C15.2389 23.1584 13.4809 24.9401 11.3028 24.9768C11.1519 24.9751 10.9962 24.9685 10.8375 24.9578C8.81305 24.7577 7.22993 23.047 7.22993 20.9683C7.22993 19.4211 7.93184 17.7352 8.78344 16.2447ZM11.7148 11.3199L11.55 11.4731L11.7147 11.3199C11.5908 11.1866 11.4176 11.11 11.2344 11.11C11.0514 11.11 10.8781 11.1866 10.7541 11.3199L10.9188 11.4731L10.7541 11.3199L10.754 11.32L10.7537 11.3203L10.7526 11.3215L10.7486 11.3258L10.7334 11.3424C10.7201 11.3569 10.7006 11.3783 10.6754 11.4062C10.6251 11.4621 10.552 11.5443 10.4601 11.6503C10.2764 11.8622 10.0176 12.1693 9.71578 12.5517C9.11264 13.3158 8.33577 14.3831 7.6443 15.5925L7.6443 15.5925C6.70529 17.2349 5.91764 19.1629 5.91764 20.9683C5.91764 22.0028 6.21309 22.9545 6.7243 23.7534C4.22182 22.409 2.08728 19.8994 2.08728 15.907C2.08728 13.4128 2.97451 10.8612 4.01007 8.73582C4.94787 6.81113 5.99969 5.25136 6.59871 4.42295L8.77799 7.04838L8.77832 7.04878C8.90343 7.1988 9.0894 7.28721 9.28718 7.28589C9.48285 7.28458 9.66899 7.19542 9.79254 7.0428L13.5006 2.46764C14.3768 3.44226 16.2364 5.6356 17.8064 8.32655L17.8064 8.32656C19.2153 10.7408 20.3816 13.5317 20.3816 16.1858C20.3816 18.5529 19.6757 20.3528 18.6114 21.6876C17.764 22.7505 16.6832 23.5259 15.535 24.0562C16.174 23.2 16.5512 22.1371 16.5512 20.9683C16.5512 19.1629 15.7635 17.2349 14.8245 15.5925L14.8245 15.5925C14.1331 14.3831 13.3562 13.3158 12.7531 12.5517C12.4513 12.1693 12.1924 11.8622 12.0087 11.6503C11.9168 11.5443 11.8437 11.4621 11.7934 11.4062C11.7682 11.3783 11.7488 11.3569 11.7355 11.3424L11.7203 11.3258L11.7162 11.3215L11.7152 11.3203L11.7148 11.32L11.7148 11.3199Z" fill="black" stroke="black" stroke-width="0.45"/>
</svg>
