<svg width="25" height="26" viewBox="0 0 25 26" fill="none" xmlns="http://www.w3.org/2000/svg">
<path fill-rule="evenodd" clip-rule="evenodd" d="M11.6768 2.53131C11.2189 3.12997 10.7022 4.05362 9.95157 5.402L9.57054 6.08648C9.54758 6.12773 9.52491 6.1686 9.50245 6.20908C9.15277 6.83923 8.85765 7.3711 8.38208 7.73262C7.90139 8.09803 7.3154 8.22991 6.63438 8.38317C6.59061 8.39301 6.54645 8.40296 6.5019 8.41305L5.76199 8.5807C4.30238 8.91141 3.30943 9.13895 2.6293 9.40736C1.96561 9.66927 1.82551 9.88386 1.77212 10.0558C1.71576 10.2373 1.71409 10.5149 2.11086 11.1461C2.51357 11.7867 3.19295 12.5857 4.18654 13.7493L4.69096 14.3399C4.72027 14.3743 4.74933 14.4082 4.77808 14.4418C5.24669 14.9892 5.6374 15.4455 5.81663 16.0227C5.99477 16.5963 5.93573 17.1991 5.86414 17.93C5.85974 17.9748 5.85531 18.0201 5.85087 18.066L5.77461 18.854C5.62451 20.4052 5.5233 21.4733 5.55753 22.2426C5.59168 23.0106 5.75366 23.2228 5.88244 23.3207C5.99698 23.4077 6.2087 23.5042 6.89847 23.3062C7.59945 23.1051 8.53108 22.6783 9.89779 22.0481L10.5905 21.7287C10.6332 21.7091 10.6755 21.6895 10.7174 21.6701C11.3508 21.3769 11.9004 21.1223 12.5 21.1223C13.0996 21.1223 13.6491 21.3769 14.2826 21.6701C14.3245 21.6895 14.3667 21.7091 14.4094 21.7287L15.1022 22.0481C16.4689 22.6783 17.4006 23.1051 18.1016 23.3062C18.7913 23.5042 19.003 23.4077 19.1176 23.3207C19.2463 23.2228 19.4083 23.0106 19.4424 22.2426C19.4766 21.4733 19.3755 20.4052 19.2254 18.854L19.1491 18.066C19.1447 18.0201 19.1402 17.9748 19.1358 17.93C19.0643 17.1991 19.0052 16.5963 19.1834 16.0227C19.3626 15.4455 19.7534 14.9892 20.2219 14.4417C20.2507 14.4082 20.2797 14.3743 20.309 14.3399L20.8134 13.7493C21.807 12.5857 22.4864 11.7867 22.8891 11.1461C23.2859 10.5149 23.2842 10.2373 23.2278 10.0558C23.1745 9.88386 23.0344 9.66927 22.3707 9.40736C21.6906 9.13895 20.6976 8.91141 19.238 8.5807L18.4981 8.41305C18.4535 8.40296 18.4093 8.39301 18.3656 8.38316C17.6846 8.22991 17.0986 8.09803 16.6179 7.73262C16.1424 7.3711 15.8473 6.83923 15.4975 6.20908C15.4751 6.1686 15.4524 6.12773 15.4295 6.08648L15.0485 5.402C14.2978 4.05362 13.7811 3.12997 13.3233 2.53131C12.8659 1.93322 12.6323 1.88149 12.5 1.88149C12.3678 1.88149 12.1341 1.93322 11.6768 2.53131ZM10.2921 1.46942C10.8462 0.744644 11.5313 0.134949 12.5 0.134949C13.4686 0.134949 14.1537 0.744644 14.708 1.46942C15.2526 2.18158 15.83 3.21906 16.5358 4.48705L16.9528 5.23609C17.4093 6.056 17.526 6.23017 17.6725 6.34151C17.8134 6.44867 17.9953 6.50843 18.8829 6.70957L19.697 6.89398C21.0639 7.20365 22.19 7.45877 23.0102 7.78243C23.8615 8.11841 24.6065 8.6136 24.8933 9.53719C25.1772 10.4513 24.8581 11.2922 24.3651 12.0765C23.8861 12.8386 23.1209 13.7345 22.1863 14.829L21.6345 15.4751C21.0334 16.1789 20.9078 16.3512 20.8488 16.5413C20.7887 16.7351 20.7942 16.959 20.885 17.8975L20.9683 18.7569C21.1098 20.2195 21.2253 21.412 21.1848 22.3204C21.1438 23.2449 20.934 24.1326 20.1722 24.7118C19.3959 25.3018 18.4929 25.2353 17.6211 24.9852C16.7758 24.7427 15.722 24.2567 14.4423 23.6667L13.68 23.3152C12.8459 22.9306 12.6673 22.8689 12.5 22.8689C12.3327 22.8689 12.1541 22.9306 11.32 23.3152L10.5576 23.6667C9.27801 24.2567 8.22419 24.7427 7.37888 24.9852C6.50708 25.2353 5.60402 25.3018 4.82787 24.7118C4.06595 24.1326 3.85628 23.2449 3.81515 22.3204C3.77475 21.412 3.89018 20.2194 4.03173 18.7569L4.11491 17.8975C4.20572 16.959 4.21138 16.7351 4.15119 16.5413C4.09216 16.3512 3.96659 16.1789 3.36544 15.4751L2.81375 14.829C1.87908 13.7346 1.11392 12.8386 0.634872 12.0765C0.141826 11.2922 -0.177171 10.4513 0.106688 9.53719C0.3935 8.6136 1.1385 8.11841 1.98984 7.78243C2.80999 7.45877 3.93612 7.20365 5.30308 6.89398L5.3771 6.87721L6.11701 6.70957C7.00468 6.50845 7.18654 6.44867 7.32752 6.34151C7.47397 6.23017 7.59073 6.056 8.04715 5.23609L8.46411 4.48704C9.16991 3.21906 9.74741 2.18158 10.2921 1.46942Z" fill="black"/>
</svg>
