<svg width="25" height="26" viewBox="0 0 25 26" fill="none" xmlns="http://www.w3.org/2000/svg">
<path fill-rule="evenodd" clip-rule="evenodd" d="M6.98006 3.56456C7.95817 1.4966 10.0612 0.0649414 12.5 0.0649414C14.9388 0.0649414 17.0419 1.4966 18.0199 3.56456C18.1174 3.56033 18.2155 3.55819 18.314 3.55819C22.0065 3.55819 25 6.55582 25 10.2536C25 12.7927 23.5887 15 21.5116 16.1348V19.6295C21.5116 20.6757 21.5117 21.5481 21.4187 22.2407C21.3206 22.9717 21.1047 23.6317 20.575 24.162C20.0455 24.6924 19.3864 24.9086 18.6564 25.0069C17.9648 25.1 17.0936 25.0999 16.0488 25.0999H8.95117C7.90642 25.0999 7.03523 25.1 6.34363 25.0069C5.61364 24.9086 4.95457 24.6924 4.42495 24.162C3.89534 23.6317 3.67944 22.9717 3.58129 22.2407C3.4883 21.5481 3.48834 20.6757 3.48837 19.6295V16.1348C1.41129 15 0 12.7927 0 10.2536C0 6.55582 2.99344 3.55819 6.68605 3.55819C6.78452 3.55819 6.88255 3.56033 6.98006 3.56456ZM6.45653 5.31006C3.83377 5.43013 1.74419 7.5975 1.74419 10.2536C1.74419 12.2815 2.96243 14.0265 4.70963 14.791C5.02727 14.9299 5.23256 15.2442 5.23256 15.5913V19.5689C5.23256 20.6914 5.23441 21.4455 5.30993 22.0079C5.38207 22.5453 5.50674 22.7753 5.65828 22.927C5.8098 23.0787 6.03945 23.2035 6.57603 23.2758C7.13771 23.3514 7.89069 23.3533 9.01163 23.3533H15.9884C17.1093 23.3533 17.8623 23.3514 18.424 23.2758C18.9606 23.2035 19.1902 23.0787 19.3417 22.927C19.4933 22.7753 19.6179 22.5453 19.6901 22.0079C19.7656 21.4455 19.7674 20.6914 19.7674 19.5689V15.5913C19.7674 15.2442 19.9727 14.9299 20.2903 14.791C22.0376 14.0265 23.2558 12.2815 23.2558 10.2536C23.2558 7.5975 21.1663 5.43012 18.5435 5.31006C18.5838 5.59388 18.6047 5.88374 18.6047 6.17813V6.76034C18.6047 7.24265 18.2142 7.63365 17.7326 7.63365C17.2509 7.63365 16.8605 7.24265 16.8605 6.76034V6.17813C16.8605 5.68576 16.7794 5.21413 16.6307 4.77485C16.0467 3.05053 14.4167 1.81157 12.5 1.81157C10.5833 1.81157 8.95327 3.05053 8.36934 4.77485C8.22058 5.21413 8.13953 5.68576 8.13953 6.17813V6.76034C8.13953 7.24265 7.74908 7.63365 7.26744 7.63365C6.7858 7.63365 6.39535 7.24265 6.39535 6.76034V6.17813C6.39535 5.88373 6.41619 5.59388 6.45653 5.31006ZM8.13953 19.5689C8.13953 19.0866 8.52999 18.6956 9.01163 18.6956H15.9884C16.47 18.6956 16.8605 19.0866 16.8605 19.5689C16.8605 20.0512 16.47 20.4422 15.9884 20.4422H9.01163C8.52999 20.4422 8.13953 20.0512 8.13953 19.5689Z" fill="black"/>
</svg>
