<svg width="25" height="26" viewBox="0 0 25 26" fill="none" xmlns="http://www.w3.org/2000/svg">
<path fill-rule="evenodd" clip-rule="evenodd" d="M10.8797 2.20215C10.1855 2.54021 9.35499 3.05509 8.17387 3.78915L5.84829 5.23449C4.73103 5.92885 3.94663 6.41751 3.36154 6.86622C2.79224 7.3028 2.46471 7.6631 2.2408 8.07273C2.0161 8.48382 1.88492 8.96444 1.81583 9.70081C1.74507 10.4548 1.74419 11.4064 1.74419 12.7549V14.5261C1.74419 16.8211 1.74592 18.4574 1.9072 19.7C2.0656 20.9203 2.36397 21.6283 2.86138 22.1436C3.35481 22.6547 4.02658 22.9581 5.19095 23.1203C6.38352 23.2864 7.95636 23.2883 10.1744 23.2883H14.8256C17.0436 23.2883 18.6165 23.2864 19.8091 23.1203C20.9734 22.9581 21.6452 22.6547 22.1386 22.1436C22.636 21.6283 22.9344 20.9203 23.0928 19.7C23.2541 18.4574 23.2558 16.8211 23.2558 14.5261V12.7549C23.2558 11.4064 23.2549 10.4548 23.1842 9.70081C23.1151 8.96444 22.984 8.48382 22.7592 8.07273C22.5352 7.6631 22.2078 7.3028 21.6385 6.86622C21.0534 6.41751 20.269 5.92885 19.1517 5.23449L16.8262 3.78915C15.645 3.05509 14.8145 2.54021 14.1203 2.20213C13.444 1.87277 12.9649 1.74663 12.5 1.74663C12.0351 1.74663 11.556 1.87277 10.8797 2.20215ZM10.1169 0.631394C10.9285 0.236167 11.6766 0 12.5 0C13.3234 0 14.0715 0.236167 14.883 0.631394C15.6677 1.01344 16.574 1.57673 17.7059 2.28029L20.109 3.77377C21.1801 4.43948 22.0379 4.97253 22.699 5.47953C23.3836 6.00454 23.9094 6.53924 24.2892 7.23409C24.6681 7.92749 24.8388 8.66529 24.9207 9.53739C25 10.3825 25 11.4161 25 12.7122V14.5899C25 16.8068 25 18.5569 24.8224 19.925C24.6402 21.3286 24.2574 22.4617 23.3926 23.3575C22.5237 24.2576 21.418 24.6597 20.0493 24.8503C18.7227 25.035 17.0284 25.035 14.8931 25.035H10.1069C7.97162 25.035 6.27733 25.035 4.95071 24.8503C3.58193 24.6597 2.47626 24.2576 1.6074 23.3575C0.742512 22.4617 0.359733 21.3286 0.177558 19.925C-2.30448e-05 18.5569 -1.13513e-05 16.8068 2.76581e-07 14.59V12.7122C-1.13513e-05 11.4161 -1.13751e-05 10.3825 0.0792909 9.53739C0.161128 8.66529 0.331803 7.92749 0.710826 7.23409C1.09064 6.53924 1.61645 6.00454 2.30105 5.47953C2.96214 4.97253 3.81986 4.43947 4.89102 3.77376L7.29402 2.2803C8.42607 1.57673 9.33238 1.01345 10.1169 0.631394Z" fill="white"/>
<path fill-rule="evenodd" clip-rule="evenodd" d="M12.4998 20.3773C12.0182 20.3773 11.6277 19.9863 11.6277 19.504V16.0108C11.6277 15.5285 12.0182 15.1375 12.4998 15.1375C12.9814 15.1375 13.3719 15.5285 13.3719 16.0108V19.504C13.3719 19.9863 12.9814 20.3773 12.4998 20.3773Z" fill="white"/>
</svg>
