<svg width="25" height="27" viewBox="0 0 25 27" fill="none" xmlns="http://www.w3.org/2000/svg">
<path fill-rule="evenodd" clip-rule="evenodd" d="M12.4999 9.16748C9.95646 9.16748 7.89453 11.2323 7.89453 13.7793C7.89453 16.3264 9.95646 18.3912 12.4999 18.3912C15.0435 18.3912 17.1054 16.3264 17.1054 13.7793C17.1054 11.2323 15.0435 9.16748 12.4999 9.16748ZM9.7367 13.7793C9.7367 12.2512 10.9739 11.0122 12.4999 11.0122C14.026 11.0122 15.2632 12.2512 15.2632 13.7793C15.2632 15.3075 14.026 16.5465 12.4999 16.5465C10.9739 16.5465 9.7367 15.3075 9.7367 13.7793Z" fill="black"/>
<path fill-rule="evenodd" clip-rule="evenodd" d="M12.4689 0.558716C11.9231 0.558704 11.4674 0.558704 11.0933 0.58426C10.7039 0.610873 10.3361 0.668233 9.97943 0.816156C9.1519 1.15941 8.49442 1.8178 8.15164 2.6465C7.9732 3.07792 7.92487 3.53259 7.90641 4.02679C7.89158 4.42406 7.69137 4.75552 7.3959 4.92634C7.10044 5.09717 6.71369 5.10506 6.3627 4.9193C5.92608 4.6882 5.50871 4.50277 5.04638 4.44182C4.15833 4.32474 3.2602 4.56573 2.54958 5.11178C2.24333 5.34709 2.0098 5.63742 1.79208 5.96185C1.58292 6.2735 1.35509 6.66869 1.08217 7.14208L1.05116 7.19587C0.778222 7.66924 0.550383 8.06441 0.385436 8.40162C0.213733 8.75266 0.0794146 9.10036 0.0290252 9.4836C-0.087891 10.3729 0.15277 11.2723 0.698039 11.984C0.98188 12.3543 1.35087 12.6236 1.76896 12.8866C2.1052 13.0982 2.29178 13.4376 2.29176 13.7794C2.29175 14.121 2.10516 14.4605 1.76896 14.672C1.35082 14.935 0.981794 15.2044 0.697928 15.5748C0.152647 16.2864 -0.0880016 17.1858 0.0289023 18.075C0.0792918 18.4583 0.21361 18.8061 0.385313 19.1571C0.55026 19.4943 0.7781 19.8894 1.05102 20.3628L1.08204 20.4166C1.35497 20.89 1.58279 21.2851 1.79195 21.5968C2.00967 21.9212 2.24321 22.2116 2.54945 22.4468C3.26008 22.9929 4.15821 23.2339 5.04625 23.1169C5.50856 23.0559 5.92591 22.8705 6.36251 22.6394C6.71354 22.4536 7.10034 22.4615 7.39584 22.6324C7.69135 22.8032 7.89158 23.1347 7.90641 23.532C7.92487 24.0262 7.97321 24.4809 8.15164 24.9123C8.49442 25.7409 9.1519 26.3994 9.97943 26.7426C10.3361 26.8906 10.7039 26.9479 11.0933 26.9745C11.4674 27 11.9231 27 12.4689 27H12.5309C13.0768 27 13.5325 27 13.9067 26.9745C14.2961 26.9479 14.6639 26.8906 15.0206 26.7426C15.8481 26.3994 16.5056 25.7409 16.8484 24.9123C17.0268 24.4809 17.0751 24.0262 17.0935 23.5319C17.1084 23.1347 17.3085 22.8032 17.604 22.6323C17.8995 22.4615 18.2864 22.4536 18.6374 22.6393C19.074 22.8704 19.4913 23.0559 19.9536 23.1167C20.8417 23.2338 21.7398 22.9929 22.4504 22.4468C22.7567 22.2115 22.9902 21.9212 23.2079 21.5968C23.417 21.2851 23.6449 20.89 23.9177 20.4166L23.9488 20.3628C24.2217 19.8894 24.4496 19.4941 24.6146 19.1569C24.7863 18.8059 24.9205 18.4583 24.971 18.075C25.0879 17.1856 24.8472 16.2863 24.3019 15.5747C24.0181 15.2043 23.649 14.935 23.231 14.672C22.8947 14.4605 22.7082 14.121 22.7082 13.7793C22.7082 13.4376 22.8947 13.0983 23.2309 12.8868C23.6492 12.6237 24.0182 12.3545 24.302 11.984C24.8473 11.2724 25.088 10.373 24.9711 9.48368C24.9206 9.10044 24.7864 8.75275 24.6147 8.40171C24.4498 8.06452 24.2219 7.66938 23.9489 7.19604L23.918 7.14221C23.645 6.66881 23.4172 6.27358 23.208 5.96193C22.9903 5.6375 22.7568 5.34718 22.4505 5.11185C21.7399 4.56582 20.8418 4.32482 19.9536 4.4419C19.4914 4.50285 19.0741 4.68826 18.6375 4.91935C18.2865 5.10514 17.8996 5.09723 17.6041 4.92638C17.3087 4.75554 17.1084 4.42403 17.0935 4.02672C17.0751 3.53254 17.0268 3.0779 16.8484 2.6465C16.5056 1.8178 15.8481 1.15941 15.0206 0.816156C14.6639 0.668233 14.2961 0.610873 13.9067 0.58426C13.5325 0.558704 13.0768 0.558704 12.5309 0.558716H12.4689ZM10.6844 2.52048C10.7792 2.48117 10.9231 2.44493 11.2187 2.42472C11.5227 2.40396 11.9152 2.40346 12.5 2.40346C13.0848 2.40346 13.4773 2.40396 13.7812 2.42472C14.0769 2.44493 14.2208 2.48117 14.3155 2.52048C14.6917 2.67651 14.9906 2.97577 15.1463 3.35246C15.1956 3.47127 15.2362 3.6565 15.2527 4.09567C15.289 5.07016 15.7913 6.00845 16.6831 6.52398C17.5747 7.03952 18.6374 7.00597 19.4983 6.5503C19.8862 6.34494 20.0669 6.28765 20.1941 6.27087C20.5978 6.21765 21.006 6.32719 21.329 6.57538C21.4104 6.63791 21.5137 6.74462 21.679 6.99092C21.849 7.2441 22.0456 7.58424 22.338 8.09142C22.6304 8.59861 22.8263 8.93924 22.9603 9.21318C23.0906 9.47968 23.1313 9.62264 23.1447 9.72447C23.1978 10.1287 23.0884 10.5375 22.8406 10.861C22.7623 10.963 22.6226 11.091 22.2508 11.3248C21.4264 11.8436 20.8661 12.7483 20.866 13.7793C20.866 14.8103 21.4263 15.7151 22.2508 16.234C22.6225 16.4678 22.7622 16.5957 22.8404 16.6978C23.0883 17.0212 23.1977 17.43 23.1445 17.8342C23.1311 17.9361 23.0905 18.079 22.9602 18.3455C22.8262 18.6194 22.6303 18.96 22.3379 19.4672C22.0455 19.9744 21.8489 20.3146 21.6789 20.5678C21.5136 20.814 21.4103 20.9207 21.3289 20.9832C21.0059 21.2315 20.5977 21.341 20.194 21.2879C20.0668 21.271 19.8861 21.2137 19.4981 21.0084C18.6372 20.5527 17.5746 20.5192 16.6828 21.0348C15.7913 21.5503 15.289 22.4885 15.2527 23.4631C15.2362 23.9022 15.1956 24.0874 15.1463 24.2064C14.9906 24.5829 14.6917 24.8823 14.3155 25.0383C14.2208 25.0776 14.0769 25.1139 13.7812 25.134C13.4773 25.1548 13.0848 25.1553 12.5 25.1553C11.9152 25.1553 11.5227 25.1548 11.2187 25.134C10.9231 25.1139 10.7792 25.0776 10.6844 25.0383C10.3083 24.8823 10.0094 24.5829 9.85359 24.2064C9.80444 24.0874 9.7637 23.9022 9.74729 23.4631C9.7109 22.4887 9.20862 21.5503 8.31692 21.0348C7.42524 20.5192 6.36265 20.5528 5.5017 21.0084C5.1137 21.2138 4.93314 21.2711 4.80581 21.2879C4.40215 21.3411 3.99391 21.2315 3.6709 20.9833C3.58953 20.9209 3.48621 20.8141 3.32092 20.5678C3.15101 20.3147 2.95433 19.9745 2.66191 19.4673C2.36949 18.9602 2.17368 18.6195 2.03968 18.3456C1.90933 18.0791 1.8687 17.9361 1.85531 17.8342C1.80217 17.43 1.91156 17.0212 2.15942 16.6978C2.2376 16.5958 2.37742 16.4678 2.74903 16.234C3.57356 15.7153 4.13388 14.8105 4.13393 13.7795C4.13399 12.7483 3.57365 11.8435 2.74905 11.3246C2.37752 11.0908 2.23771 10.9629 2.15953 10.8609C1.91168 10.5374 1.8023 10.1286 1.85544 9.72439C1.86882 9.62257 1.90945 9.47959 2.0398 9.21311C2.1738 8.93915 2.36961 8.59853 2.66202 8.09133C2.95445 7.58415 3.15112 7.24402 3.32104 6.99083C3.48633 6.74455 3.58965 6.63782 3.67101 6.57531C3.99403 6.32711 4.40227 6.21757 4.80592 6.27078C4.93327 6.28757 5.11384 6.34485 5.50188 6.55025C6.36279 7.00591 7.42533 7.03945 8.31697 6.52394C9.20863 6.00843 9.7109 5.07018 9.74729 4.09573C9.7637 3.65652 9.80444 3.47128 9.85359 3.35246C10.0094 2.97577 10.3083 2.67651 10.6844 2.52048Z" fill="black"/>
</svg>
