<svg width="22" height="23" viewBox="0 0 22 23" fill="none" xmlns="http://www.w3.org/2000/svg">
    <g clip-path="url(#clip0_69_148)">
        <path fill-rule="evenodd" clip-rule="evenodd" d="M9.52861 18.2706C14.058 18.2706 17.7276 14.5921 17.7276 10.0517C17.7276 5.51131 14.058 1.83279 9.52861 1.83279C4.99919 1.83279 1.32957 5.51131 1.32957 10.0517C1.32957 14.5921 4.99919 18.2706 9.52861 18.2706ZM9.52861 19.6034C14.7893 19.6034 19.0572 15.3251 19.0572 10.0517C19.0572 4.77827 14.7893 0.5 9.52861 0.5C4.26793 0.5 0 4.77827 0 10.0517C0 15.3251 4.26793 19.6034 9.52861 19.6034Z" fill="#138453"/>
        <path fill-rule="evenodd" clip-rule="evenodd" d="M15.5383 16.0226C15.7998 15.7605 16.2208 15.7605 16.4778 16.0226L21.805 21.3627C22.0665 21.6248 22.0665 22.0469 21.805 22.3045C21.5435 22.5667 21.1225 22.5667 20.8654 22.3045L15.5383 16.9645C15.2768 16.7024 15.2768 16.2803 15.5383 16.0226Z" fill="#138453"/>
    </g>
    <defs>
        <clipPath id="clip0_69_148">
            <rect width="22" height="22" fill="white" transform="translate(0 0.5)"/>
        </clipPath>
    </defs>
</svg>
