<svg width="25" height="26" viewBox="0 0 25 26" fill="none" xmlns="http://www.w3.org/2000/svg">
<path fill-rule="evenodd" clip-rule="evenodd" d="M19.4192 1.99278C17.3129 1.51954 14.7486 2.22532 12.8408 4.13573C11.4834 5.49497 10.424 7.52424 10.0152 9.50788C9.85833 10.2687 9.8027 10.9882 9.84765 11.6423C10.0629 11.2303 10.3124 10.8131 10.5783 10.4037C11.7073 8.66573 13.2704 6.86131 14.3321 5.79819C15.3953 4.73363 16.9734 3.39284 18.4935 2.48912C18.7973 2.30851 19.108 2.13984 19.4192 1.99278ZM23.0547 2.04785C20.031 -0.980057 14.8146 -0.31072 11.6075 2.90075C9.99143 4.51909 8.77963 6.86272 8.30713 9.15479C8.17427 9.79932 8.09669 10.4595 8.09052 11.1109L1.22491 17.9859C-0.408304 19.6213 -0.408304 22.2729 1.22491 23.9083C2.85812 25.5438 5.50604 25.5438 7.13924 23.9083L14.0056 17.0327C14.6557 17.0264 15.3144 16.9486 15.9575 16.8157C18.2465 16.3426 20.5869 15.1291 22.2031 13.5108C25.4101 10.2993 26.0786 5.07579 23.0547 2.04785ZM21.8216 3.28283C21.7689 3.23012 21.6151 3.12597 21.1399 3.22351C20.671 3.31975 20.0687 3.58376 19.3839 3.99091C18.0252 4.79865 16.5609 6.03632 15.5654 7.03317C14.5683 8.03144 13.0885 9.74235 12.0403 11.356C11.5122 12.1689 11.1276 12.9061 10.9506 13.4861C10.8625 13.7752 10.8409 13.9782 10.8504 14.1066C10.8548 14.1669 10.8654 14.2002 10.8716 14.2152C10.8768 14.228 10.8807 14.2322 10.8839 14.2354C10.887 14.2386 10.8913 14.2425 10.9041 14.2477C10.9191 14.254 10.9524 14.2646 11.0126 14.269C11.1409 14.2786 11.3437 14.2569 11.6324 14.1687C12.2118 13.9914 12.948 13.6064 13.7598 13.0777C15.3714 12.0282 17.0801 10.5464 18.077 9.54821C19.0724 8.55142 20.3082 7.08499 21.1148 5.72427C21.5213 5.03838 21.7848 4.43517 21.8809 3.96554C21.9782 3.48965 21.8743 3.33555 21.8216 3.28283ZM13.474 15.2731C13.8855 15.0576 14.302 14.808 14.7107 14.5418C16.4463 13.4115 18.2485 11.8463 19.3102 10.7832C20.3733 9.71856 21.7122 8.13811 22.6145 6.61565C22.7948 6.31147 22.9631 6.00054 23.11 5.68889C23.5824 7.79799 22.8774 10.3655 20.9698 12.2758C19.6125 13.635 17.5859 14.6957 15.605 15.1052C14.8454 15.2623 14.1272 15.318 13.474 15.2731ZM11.8269 16.7445C11.0138 16.4997 10.268 16.0885 9.65066 15.4704C9.03361 14.8525 8.6231 14.1061 8.37866 13.2923L2.45811 19.2209C1.50602 20.1742 1.50602 21.72 2.45811 22.6734C3.41023 23.6268 4.95392 23.6268 5.90604 22.6734L11.8269 16.7445Z" fill="black"/>
</svg>
