<svg width="18" height="20" viewBox="0 0 18 20" fill="none" xmlns="http://www.w3.org/2000/svg">
<path fill-rule="evenodd" clip-rule="evenodd" d="M4.41474 17.9624C3.102 17.9624 2.03757 16.898 2.03757 15.5853V4.41474C2.03757 3.102 3.102 2.03757 4.41474 2.03757H9.04927C9.61172 2.03757 10.0681 1.58124 10.0681 1.01879C10.0681 0.456335 9.61172 0 9.04927 0H4.41474C1.97707 0 0 1.97601 0 4.41474V15.5853C0 18.0229 1.97707 20 4.41474 20H9.04927C9.61172 20 10.0681 19.5437 10.0681 18.9812C10.0681 18.4188 9.61172 17.9624 9.04927 17.9624H4.41474ZM11.9399 14.4668C12.3379 14.8647 12.9831 14.8647 13.3811 14.4668L17.1272 10.7206C17.3182 10.5296 17.4254 10.2707 17.4254 10.0001C17.4254 9.72944 17.3182 9.4705 17.1272 9.27949L13.3811 5.53334C12.9831 5.13539 12.3379 5.13539 11.9399 5.53334C11.542 5.93023 11.542 6.57547 11.9399 6.97344L13.9478 8.9813H6.64971C6.08726 8.9813 5.63093 9.43763 5.63093 10.0001C5.63093 10.5625 6.08726 11.0189 6.64971 11.0189H13.9478L11.9399 13.0267C11.542 13.4247 11.542 14.0688 11.9399 14.4668Z" fill="#E02727"/>
</svg>
