<svg xmlns="http://www.w3.org/2000/svg" version="1.1" viewBox="-5.0 -10.0 110.0 135.0">
 <path d="m15.816 32.625c0-8.582 6.9648-15.539 15.547-15.531l38.984 0.042969c8.5703 0.007812 15.516 6.9609 15.516 15.531v26.648c0 8.5742-6.9531 15.527-15.531 15.527h-12.105c-3.4609 0-6.832 1.1328-9.5898 3.2227l-13.039 9.875c-1.1367 0.85938-2.6602 1-3.9336 0.36719-1.2734-0.63281-2.082-1.9336-2.082-3.3555v-10.297c-7.793-1.1953-13.766-7.9297-13.766-16.062zm15.539-8.0312c-4.4375-0.003906-8.0391 3.5938-8.0391 8.0312v25.969c0 4.8359 3.918 8.75 8.75 8.75h1.2656c0.99609 0 1.9492 0.39844 2.6523 1.1016 0.70312 0.70313 1.0977 1.6562 1.0977 2.6484v6.3125l7.0273-5.3164c4.0625-3.0781 9.0195-4.7461 14.117-4.7461h12.105c4.4336 0 8.0312-3.5938 8.0312-8.0273v-26.648c0-4.4336-3.5898-8.0273-8.0234-8.0312z" fill-rule="evenodd"/>
<text x="0.0" y="117.5" font-size="5.0" font-weight="bold" font-family="Arbeit Regular, Helvetica, Arial-Unicode, Arial, Sans-serif" fill="#000000">Created by Artur Lopato</text><text x="0.0" y="122.5" font-size="5.0" font-weight="bold" font-family="Arbeit Regular, Helvetica, Arial-Unicode, Arial, Sans-serif" fill="#000000">from Noun Project</text></svg>