<?xml version="1.0" encoding="utf-8"?>
<!-- Generator: Adobe Illustrator 28.3.0, SVG Export Plug-In . SVG Version: 6.00 Build 0)  -->
<svg version="1.1" id="Capa_1" xmlns="http://www.w3.org/2000/svg" xmlns:xlink="http://www.w3.org/1999/xlink" x="0px" y="0px"
	 viewBox="0 0 87.5 70.8" style="enable-background:new 0 0 87.5 70.8;" xml:space="preserve">
<path d="M87.5,34.6c0-8.4-19.8-25-43.8-25c-3.7,0-7.2,0.4-10.6,1.1l-8-8c-3.7-3.7-9.6-3.7-13.3,0s-3.7,9.6,0,13.3l2.2,2.2
	C5.4,23.6,0,30.2,0,34.6c0,8.4,19.8,25,43.8,25c3.7,0,7.2-0.4,10.6-1.1l9.6,9.6c1.8,1.8,4.2,2.7,6.7,2.7s4.8-0.9,6.6-2.7
	c3.7-3.7,3.7-9.6,0-13.3l-3.8-3.8C82.1,45.7,87.5,39.1,87.5,34.6L87.5,34.6z M43.7,53.4c-21.6,0-37.5-14.8-37.5-18.8
	c0-2.1,4.7-7.4,12.3-11.9l12.7,12.7c0.4,6.2,5.4,11.2,11.7,11.7l6,6C47.2,53.3,45.5,53.4,43.7,53.4L43.7,53.4z M72.8,63.7
	c-1.2,1.2-3.2,1.2-4.4,0L16.3,11.6c-1.2-1.2-1.2-3.2,0-4.4c0.6-0.6,1.4-0.9,2.2-0.9s1.6,0.3,2.2,0.9l52.1,52.1
	C74,60.5,74,62.5,72.8,63.7L72.8,63.7z M68.9,46.5L56.2,33.8c-0.4-6.2-5.4-11.2-11.7-11.7l-6-6c1.7-0.2,3.4-0.3,5.2-0.3
	c21.6,0,37.5,14.8,37.5,18.8C81.2,36.8,76.6,42.1,68.9,46.5L68.9,46.5z"/>
</svg>
