<?xml version="1.0" encoding="utf-8"?>
<!-- Generator: Adobe Illustrator 28.3.0, SVG Export Plug-In . SVG Version: 6.00 Build 0)  -->
<svg version="1.1" id="Capa_1" xmlns="http://www.w3.org/2000/svg" xmlns:xlink="http://www.w3.org/1999/xlink" x="0px" y="0px"
	 viewBox="0 0 87.5 50" style="enable-background:new 0 0 87.5 50;" xml:space="preserve">
<path d="M43.8,50C19.8,50,0,33.4,0,25S19.8,0,43.8,0s43.8,16.6,43.8,25S67.7,50,43.8,50z M43.8,6.2C22.2,6.2,6.2,21.1,6.2,25
	s15.9,18.8,37.5,18.8S81.2,28.9,81.2,25S65.3,6.2,43.8,6.2z M43.8,37.5c-6.9,0-12.5-5.6-12.5-12.5s5.6-12.5,12.5-12.5
	S56.2,18.1,56.2,25S50.7,37.5,43.8,37.5z M43.8,18.8c-3.4,0-6.2,2.8-6.2,6.2s2.8,6.2,6.2,6.2S50,28.4,50,25S47.2,18.8,43.8,18.8z"/>
</svg>
